<?xml version="1.0" encoding="utf-8"?>
<!-- Generator: Adobe Illustrator 27.3.1, SVG Export Plug-In . SVG Version: 6.00 Build 0)  -->
<svg version="1.1" id="Camada_1" xmlns="http://www.w3.org/2000/svg" xmlns:xlink="http://www.w3.org/1999/xlink" x="0px" y="0px"
	 viewBox="0 0 1031 370" style="enable-background:new 0 0 1031 370;" xml:space="preserve">
<style type="text/css">
	.st0{fill:#FF4F00;}
	.st1{fill:#1D005F;}
	.st2{font-family:'Inlanders-Bold';}
	.st3{font-size:214.845px;}
</style>
<g>
	<path class="st0" d="M184.3,172.92v-0.71l-0.05,190.92H134.2V7.33c0.16-0.63,0.51-0.94,1.06-0.94h47.98
		c2.12,2.2,7.72,12.39,16.82,30.58l17.41,31.16c14.9-28.15,25.95-48.73,33.16-61.74h48.45c0.71,0.08,1.06,0.39,1.06,0.94v164.88
		c0,0.71-0.35,1.06-1.06,1.06H251.1c-0.63,0-0.94-0.35-0.94-1.06v-59.63h-0.59c-9.1,18.19-14.54,28.03-16.35,29.52h-32.11
		c-2.51-2.9-7.96-12.74-16.35-29.52h-0.47v59.63"/>
</g>
<g>
	<path class="st1" d="M127.5,189.26 M127.02,297.53h-0.6l1.08-108.27c-7.36,13.27-18.63,34.25-33.81,62.95l-17.74-31.77
		c-9.27-18.54-14.99-28.93-17.15-31.17H9.88c-0.56,0-0.92,0.32-1.08,0.96v168.1c0,0.72,0.36,1.08,1.08,1.08H58.8
		c0.72,0,1.08-0.36,1.08-1.08v-60.79h0.48c8.55,17.11,14.11,27.14,16.67,30.09h32.73c1.84-1.52,7.39-11.55,16.67-30.09"/>
</g>
<text transform="matrix(1 0 0 1 311.9443 169.7852)" class="st0 st2 st3">oney</text>
<text transform="matrix(1 0 0 1 194.5928 360.2393)" class="st1 st2 st3">ilhas</text>
<path class="st1" d="M805.12,288.21l-51.75-24.38l8.59-7l47.61,15.05c0,0-0.09-12.19,2.63-14.46c2.72-2.27,9.53-3.69,9.53-3.69
	l12.57,12.77l9.78-11.51l-31.62-17.5c-0.02,0.03-0.04,0.06-0.07,0.09c-2.73,3.32-6.04,5.1-7.39,3.99c-1.24-1.02-0.39-4.11,1.86-7.17
	l-26.48-14.65c-2.29,2.12-4.63,3.11-5.71,2.22c-0.95-0.78-0.66-2.8,0.54-5.08l-43.15-23.88c0,0-0.88-9.18,6.13-10.16l106.43,31.08
	c7.4-4.22,19.24-10.37,24.69-9.97c6.74,0.49,14,8.59,5.35,18.75l16.84,4.92c0,0,92.79-53.36,103.21-57.44
	c10.42-4.09,27.98,1.95,30,5.31c2.02,3.36-6.24,21.91-31.52,36.84c-25.28,14.93-62.12,34.98-62.12,34.98s2.35,11.99,5.3,27.46
	c6.22-2.58,14.97-5.78,18.02-4.83c4.93,1.54,5.66,13.97,1.61,16.83c-2.02,1.43-9.23,4.62-15.94,7.46c4.47,23.8,8.8,47.8,8.13,48.1
	c-1.33,0.59-6.67,2.95-6.67,2.95l-25.06-25.93c-0.76,0.49-1.61,0.96-2.54,1.38c-3.93,1.74-7.69,1.85-8.4,0.25
	c-0.71-1.6,1.9-4.31,5.82-6.05c0.2-0.09,0.4-0.17,0.6-0.25l-15.23-15.76c-0.8,0.54-1.72,1.05-2.73,1.5
	c-3.93,1.74-7.69,1.85-8.4,0.25c-0.71-1.6,1.9-4.31,5.83-6.05c0.27-0.12,0.55-0.23,0.82-0.34l-12.59-13.03l-39.2,14.72l9.21,21.97
	l-9.14,4.58l-24.9-21.39l-1.03-5.92c0,0-10.52,6.26-13.43,3.29C798.25,295.51,805.12,288.21,805.12,288.21z"/>
</svg>
